<svg xmlns="http://www.w3.org/2000/svg" viewBox="0 0 340 76" preserveAspectRatio="xMidYMid meet">
  <g transform="translate(4, 3.5150000000000006) scale(0.055)">
<path d="M623.168 50.739l11.488-.013c22.595-.015 44.854 1.458 67.206 4.768l7.808 1.119c10.143 1.455 20.142 3.298 30.151 5.489 3.297.72 6.597 1.344 9.925 1.902 6.877 1.216 13.589 3.085 20.316 4.934l2.13.582c11.46 3.142 22.812 6.582 34.12 10.231l2.135.685c7.792 2.509 15.421 5.232 22.95 8.462 3.409 1.445 6.864 2.676 10.353 3.916 7.606 2.793 14.72 6.269 21.906 9.992l7.844 3.883c14.581 7.117 28.592 14.963 42.5 23.313l4.91 2.91c30.153 17.995 58.31 40.215 83.945 64.168l6.133 5.594c7.536 6.748 14.427 13.959 21.255 21.418l5.218 5.593c6.481 6.884 12.687 13.882 18.539 21.316l1.534 1.936c24.142 30.51 44.879 62.9 63.466 97.064l1.137 2.083c3.534 6.487 7.047 12.957 9.941 19.761 1.067 2.495 2.214 4.946 3.359 7.406 2.332 5.107 4.331 10.306 6.309 15.559 1.17 2.979 2.454 5.859 3.816 8.754 2.189 4.706 3.882 9.472 5.445 14.418 1.631 4.964 3.53 9.829 5.42 14.699 3.744 9.681 6.834 19.454 9.635 29.446l.651 2.298c3.519 12.437 6.689 24.912 9.287 37.577l.439 2.103L1177 517l.382 1.975c6.486 33.511 9.014 66.753 8.994 100.842l.004 6.647c.008 17.589-.476 35.034-2.38 52.536l-.257 2.371-1.743 14.067-.5 3.924c-.87 6.65-1.986 13.109-3.5 19.639a85.14 85.14 0 0 0-.437 4.813c-.315 3.661-.962 7.051-1.898 10.602-1.158 4.514-2.222 9.035-3.207 13.59-3.741 17.255-8.095 34.159-13.457 50.996l-1.151 3.615-3.537 10.885-1.08 3.308a162.38 162.38 0 0 1-7.003 17.525c-1.6 3.47-3.027 7-4.462 10.541-9.622 23.683-20.418 46.764-33.404 68.797l-3.564 6.252c-11.774 21.112-25.797 41.145-40.801 60.078l-2.004 2.555c-7.572 9.577-15.477 18.892-23.701 27.915l-4.232 4.724c-5.903 6.67-12.104 13.001-18.411 19.284l-5.146 5.153c-5.667 5.67-11.378 11.193-17.506 16.369l-3.246 2.852c-8.282 7.224-16.867 13.967-25.654 20.563l-5.928 4.546c-39.225 30.237-84.226 53.728-130.169 71.852l-7.933 3.183c-21.119 8.507-43.043 14.377-65.07 20.004l-2.774.726c-78.212 20.314-162.506 19.254-241.1 2.498l-5.599-1.187c-13.964-2.947-27.884-5.956-41.402-10.6l-3.754-1.277L457 1168l-4.812-1.625-2.094-.703c-2.289-.734-4.595-1.388-6.906-2.047-4.77-1.414-9.267-3.275-13.836-5.234-3.832-1.59-7.707-3.025-11.602-4.453-4.778-1.761-9.403-3.615-13.902-6.008-2.936-1.478-5.996-2.627-9.062-3.805-20.513-8.286-40.061-19.412-58.785-31.125l-2.698-1.671c-12.817-7.951-25.204-16.324-37.302-25.329l-4.285-3.164c-10.38-7.694-20.368-15.773-30.152-24.211l-1.735-1.494c-10.439-9.065-20.429-18.546-30.202-28.32l-5.468-5.429c-6.113-6.084-11.91-12.214-17.248-18.999-2.001-2.497-4.113-4.848-6.285-7.197-5.037-5.543-9.635-11.384-14.192-17.322l-2.834-3.668c-25.139-32.365-45.396-68.202-63.455-104.895l-4.457-8.678c-3.158-6.317-5.537-12.912-7.933-19.543l-3.817-10.332-1.348-3.641c-.831-2.21-1.707-4.375-2.662-6.534-4.318-9.836-7.285-20.035-10.303-30.325l-.865-2.931c-4.886-16.619-9.071-33.266-12.362-50.275l-1.356-6.833c-2.35-11.876-4.25-23.772-5.853-35.771l-1.164-8.507-.756-5.582-.344-2.482c-1.637-12.406-2.087-24.863-2.164-37.365l-.015-1.995-.059-14.946-.003-2.225c-.026-24.322.825-48.235 4.316-72.337l.337-2.383c2.739-19.349 6.129-38.477 10.874-57.445l2.441-10.109C87.06 462.709 92.265 444.644 99 427l1.938-5.375a371.71 371.71 0 0 1 5.07-13.168l1.922-4.883c1.793-4.646 3.794-9.08 6.07-13.512 1.901-3.722 3.534-7.356 4.875-11.312 15.752-45.016 47.726-88.537 77.918-125.074l4.383-5.383c4.81-5.971 9.828-11.666 15.051-17.273 2.032-2.186 3.984-4.426 5.926-6.691 4.233-4.857 8.772-9.403 13.336-13.947l4.33-4.337c5.225-5.229 10.569-10.237 16.182-15.045l4.625-4.25c5.038-4.546 10.32-8.713 15.68-12.867l7.328-5.828C292.796 160.592 302.259 153.69 312 147l1.76-1.223c18.211-12.637 37.348-24.015 57.052-34.152l1.865-.96c6.031-3.092 12.054-6.088 18.322-8.665l5.063-2.312C415.634 90.782 435.573 83.667 456 77l2.266-.747C489.649 65.939 522.319 59.515 555 55l4.242-.613c21.225-2.89 42.525-3.719 63.926-3.647zM575.785 96.6l-13.379 1.716-4.988.627-7.47.934-7.479.939-2.232.272c-4.868.625-9.489 1.667-14.237 2.912l-6.75 1.188c-19.936 3.61-39.374 9.162-58.477 15.851l-12.145 4.08C412.424 137.256 376.837 156.12 345 177l-3.945 2.551C331.727 185.626 322.819 192.211 314 199l-1.856 1.427c-11.249 8.672-22.136 17.735-32.632 27.308l-4.159 3.668c-5.888 5.033-11.363 10.456-16.825 15.94l-4.771 4.765C248.294 257.565 242.981 263.095 238 269l-2.703 3.133c-4.739 5.568-9.402 11.182-13.922 16.93l-1.231 1.565L216 296l-2.029 2.648c-5.526 7.282-10.732 14.732-15.783 22.352l-1.177 1.771c-24.063 36.258-47.353 76.398-60.046 118.249-.965 2.98-.965 2.98-2.354 6.119-1.78 4.117-3.078 8.331-4.353 12.627l-.758 2.524-1.578 5.285-2.363 7.879c-4.713 15.716-9.226 31.456-12.184 47.609l-.578 3.041L111 536l-.36 2.007a433.3 433.3 0 0 0-4.827 35.556l-.261 2.774c-3.181 35.004-3.662 71.209.978 106.108l1.455 11.849L111 718l.374 2.874c1.762 13.35 4.999 26.169 8.626 39.126l1.008 3.609C125.691 780.4 125.691 780.4 131 797l1.875 5.652C150.064 853.804 175.2 901.473 207 945l2.164 2.969c8.794 11.896 18.079 23.397 28.203 34.188 1.999 2.16 3.934 4.341 5.855 6.569 3.482 3.985 7.118 7.777 10.856 11.521l1.976 1.986 4.114 4.122 6.187 6.226c6.555 6.582 13.108 12.924 20.42 18.669 2.085 1.641 4.068 3.35 6.037 5.126 32.241 28.398 69.95 50.456 108.188 69.625l2.96 1.486c10.255 5.112 20.484 9.68 31.375 13.26C439 1122 439 1122 442.167 1123.377c4.202 1.818 8.493 3.336 12.817 4.837l2.591.9 5.426 1.873 5.433 1.894c11.124 3.912 22.073 7.119 33.668 9.296 3.219.679 5.905 1.509 8.897 2.822a95.05 95.05 0 0 0 4.813 1c3 .562 5.865 1.187 8.813 2 4.885 1.282 9.907 1.747 14.917 2.303 5.26.598 5.26.598 7.458 1.697 19.844 3.682 39.855 4.847 60 5l2.853.023 22.96.102 3.251.009c17.833.033 35.341-.623 53.043-2.808l6.553-.777 4.23-.514 3.782-.457c3.062-.532 5.485-1.368 8.327-2.578 2.016-.451 2.016-.451 4.035-.754C783.496 1138.401 847.901 1111.094 905 1074l3.176-2.035c15.326-9.984 29.802-21.24 43.824-32.965l1.791-1.49c17.097-14.272 34.241-29.599 48.624-46.646 1.888-2.218 3.863-4.346 5.836-6.488 4.547-5.04 8.715-10.323 12.871-15.684l7.264-9.104c12-14.805 22.658-30.349 32.615-46.588l1.201-1.938c29.049-46.897 50.39-98.203 64.318-151.526 1.022-3.904 2.204-7.707 3.48-11.535.364-2.077.364-2.077.5-4 .203-2.431.611-4.311 1.434-6.629 1.193-3.772 1.869-7.527 2.469-11.425l.371-2.335 1.164-7.485.402-2.576c3.63-23.285 6.817-46.349 6.829-69.951l.01-4.708.007-9.831.021-9.945c.111-26.617.111-26.617-2.206-53.114l-.347-2.68c-1.424-10.946-3.216-21.8-5.245-32.65-.885-4.736-1.693-9.458-2.346-14.233-4.677-30.837-14.882-63.814-27.664-92.219-1.461-3.363-2.679-6.761-3.898-10.219-6.49-17.903-15.104-35.713-24.828-52.066-1.488-2.612-2.563-5.151-3.672-7.934a92.12 92.12 0 0 0-2.812-4.25c-2.034-2.977-3.909-5.954-5.625-9.125-2.927-5.379-6.222-10.495-9.562-15.625l-1.734-2.699c-12.582-19.277-26.875-37.476-41.982-54.826l-3.209-3.709c-11.227-12.969-22.924-25.921-36.043-37.012-2.098-1.812-4.121-3.695-6.144-5.591-6.418-5.995-13.158-11.442-20.119-16.792l-5.171-4.085C925.783 188.43 910.175 177.905 894 168l-2.123-1.304C868.459 152.398 843.636 139.803 818 130l-5.5-2.187-2.156-.855c-1.906-.778-3.794-1.6-5.676-2.434-3.591-1.491-7.12-2.639-10.855-3.711l-2.134-.617L784 118l-10.56-3.011-7.203-2.046c-6.81-1.935-13.582-3.959-20.328-6.108-3.811-1.093-7.619-1.698-11.535-2.28-3.253-.535-6.445-1.202-9.663-1.915-32.943-7.26-65.539-8.805-99.15-8.953l-3.734-.029c-15.572-.104-30.635.679-46.044 2.942z" fill="#0354db"/><path d="M788 373c.539 15.31-.942 30.434-2.393 45.654l-1.871 20.175-.41 4.47-3.139 38.201-.172 2.371-1.275 20.184-.129 2.578-.229 4.888c-.218 4.553-.666 8.977-1.383 13.479-1.617.781-1.617.781-4 1a57.56 57.56 0 0 1-6.125-4.5l-3.469-2.777-1.734-1.398c-2.374-1.881-4.821-3.643-7.297-5.387l-2.352-1.66c-2.091-1.433-2.091-1.433-5.023-2.277l-.816 2.679c-1.116 3.13-2.4 5.639-4.134 8.462l-1.797 2.953-1.941 3.156-4.102 6.762-1.061 1.75c-3.658 6.05-7.193 12.169-10.713 18.301l-3.75 6.527-1.855 3.23-8.895 15.305-1.725 2.955L701 589l-19.84 34.234-10.542 18.128-12.931 22.325-21.431 36.766-7.655 13.054-22.758 38.684-5.187 8.898C591.961 776.197 581.093 789.496 569 802l-2.293 2.449c-29.983 31.293-77.62 49.772-120.414 50.898-15.243.298-30.386.153-45.293-3.348l-2.289-.504c-24.699-5.51-47.66-16.092-67.711-31.496l-2.715-2.035C314.443 807.162 302.341 794.148 292 780l-1.906-2.527C277.369 760.092 268.084 739.589 262 719l-.946-3.052c-2.53-8.409-4.189-16.681-5.304-25.385l-.51-3.943c-1.432-11.58-1.85-22.973-1.24-34.62l.133-2.55c3.266-53.869 29.018-102.511 66.492-140.325l2.35-2.378c25.425-25.283 58.533-42.401 93.275-50.497l2.724-.639c12.413-2.769 24.789-2.751 37.441-2.724h5.532l14.929.013 15.635.008 29.568.021 33.678.022L625 453c1.059 2.372 1.059 2.372 2 5-.949 2.043-.949 2.043-2.687 4.188-3.406 4.505-6.407 9.104-9.312 13.938l-13.375 21.688-14.812 23.75-1.601 2.575-1.504 2.428-1.298 2.092c-1.578 2.464-1.578 2.464-2.773 5.934-1.44 2.486-2.137 3.267-4.936 4.054-3.114.246-6.163.261-9.286.208l-3.589.023c-3.247.014-6.492-.002-9.739-.032-3.405-.023-6.81-.005-10.216.009-6.459.021-12.917.008-19.375-.018l-34.626-.009a2425.24 2425.24 0 0 1-14.086-.027l-7.421-.008-3.357-.027c-29.211.029-57.452 14.238-78.134 34.278-23.774 23.983-34.167 55.38-34.045 88.612.256 27.825 8.332 53.693 26.174 75.345l1.82 2.352c13.423 16.445 33.519 25.695 54.354 27.876 25.281 1.849 47.996-8.614 66.975-24.653 20.933-18.897 35.084-41.143 49.521-65.074l11.643-19 15.051-24.762 12.824-21.238 1.084-1.784 8.843-14.549 7.698-12.667 1.086-1.787 14.519-24.081 12.708-21.007 19.194-31.827 11.892-19.696 1.976-3.229 3.664-5.958 1.622-2.645 1.414-2.294c1.252-2.076 1.252-2.076 2.113-4.976l-2.125-.551c-5.769-1.528-11.34-3.223-16.875-5.449l-2.715-1.078L648 456v-4l1.683-.939 34.505-19.873 31.535-18.323 22.465-12.99 28.266-16.083c5.584-3.103 11.073-6.296 16.474-9.708C785 373 785 373 788 373z" fill="#0033b5"/><path d="M820.493 456.58l1.988-.026 6.535-.023 4.597-.023 9.684-.009 9.798-.041c42.451-.415 42.451-.415 61.905 8.542v2l3.055.758c4.049 1.159 7.46 2.983 11.07 5.117l1.801 1.027c2.763 1.604 5.28 3.266 7.754 5.293 2.304 1.792 3.577 2.14 6.32 2.805 1.527 1.453 1.527 1.453 2.938 3.25 2.495 3.142 5.208 5.929 8.063 8.75 14.807 15.072 23.428 32.795 29 53l.754 2.723c3.42 15.091 1.603 31.361-1.754 46.277l-.586 2.934C978.949 618.446 965.07 639.349 949 651h-2a91.15 91.15 0 0 0 10.188 9.063C977.074 676.233 990.275 702.538 993 728c.163 4.084.185 8.163.188 12.25l.037 3.238c.013 7.062-.706 13.619-2.225 20.512l-.789 3.723C985.448 786.753 976.571 802.995 964 818l-1.676 2.086C950.784 834.022 934.264 843.567 918 851l-3.066 1.402c-19.757 8.302-40.291 8.172-61.338 8.062l-12.621-.008c-7.266.002-14.531-.01-21.797-.033l-31.514-.048-51.146-.073-49.645-.082-3.098-.003-15.387-.015L541 860c2.051-2.051 3.463-2.774 6.086-3.926C577.189 842.517 602.67 823.071 623 797l4.75-5.75c2.838-3.352 2.838-3.352 5.233-7.015 1.604-2.741 2.843-4.84 5.941-5.883 2.41-.247 4.736-.269 7.158-.219l2.778-.026 9.219.038 6.609-.023 17.957.032 18.794-.009 31.575.009 32.452.039h2.017l33.342-.021 22.374.019 13.935.013 6.452.017 8.825.01 2.563.02c10.277-.041 20.477-2.245 28.297-9.299 8.413-9.053 12.267-18.742 11.977-31.09-.821-9.549-4.052-17.954-11.098-24.613-8.769-6.988-17.679-9.392-28.779-9.408l-2.268-.015-7.49-.032-5.382-.03-14.589-.068-15.255-.076-28.878-.138-32.88-.16L681 703c.647-4.325 1.491-7.365 3.738-11.133l1.716-2.908 1.859-3.084 1.927-3.248L696 673l2.93-4.898 4.157-6.922 9.78-16.398 1.294-2.186 5.179-8.762 3.632-6.146 1.097-1.866L727 621l1.29-2.162C730 617 730 617 732.379 616.506l2.868.009 3.296-.02 3.617.039 5.79-.011 6.23.022 13.017.008 32.359.021 25.1.003 12.902.029 9.989-.01 3.556.045c11.29-.096 22.743-3.468 30.898-11.641 7.218-8.421 9.621-18.136 9.281-29.086-.959-9.938-5.183-18.315-12.469-25.164-8.926-6.847-17.517-8.493-28.574-8.457l-3.854-.046-10.026-.054-10.278-.082L806 542c-.141-10.092.269-20.074.988-30.137l.315-4.492.668-9.315.826-11.937.657-9.231.302-4.405.444-6.122.249-3.512C811 460 811 460 812.144 458.129c2.786-1.694 5.105-1.526 8.349-1.549z" fill="#0176ea"/><path d="M691 682c2 3 2 3 1.813 5.125L692 689l-3 1-3 7c12.003.938 23.904 1.097 35.938 1l10.215-.062 2.351-.025c1.832-.009 3.665.034 5.497.088l1 1c1.592.099 3.189.129 4.785.131l3.139.012 3.474-.002 3.637.011 7.854.016 12.448.041 4.264.019 2.158.01 28.986.087 19.539.069 10.33.027 11.567.048 3.406-.02c12.524.146 23.449 3.969 32.606 12.62 8.213 8.682 11.092 17.408 10.965 29.219-.348 6.042-2.713 11.27-5.156 16.711h-3l.656-2.238c3.267-11.902 3.795-22.957-1.91-34.242-5.104-8.302-12.559-13.441-21.746-16.52-4.562-.92-8.993-1.152-13.631-1.158l-2.268-.015-7.49-.032-5.382-.03-14.589-.068-15.255-.076-28.878-.138-32.88-.16L681 703c.574-3.735 1.059-6.644 3.066-9.867l1.221-1.992 1.275-2.016 1.287-2.086L691 682z" fill="#0634c1"/><path d="M578 839l2 1c-2.282 2.685-4.977 4.209-8.039 5.895l-6.023 3.668c-3.218 2.033-6.496 3.803-9.937 5.438v3l123.494.102 14.592.008 2.934.002 46.987.043 48.24.034 29.748.028 20.421.011 11.768.011 10.801.003 5.701.016c11.476-.039 22.589-1.315 33.501-4.946 7.421-2.443 7.421-2.443 10.813-1.312-19.124 9.461-40.646 8.573-61.404 8.464l-12.621-.008c-7.266.002-14.531-.01-21.797-.033l-31.514-.048-51.146-.073-49.645-.082-3.098-.003-15.387-.015L541 860c2.087-2.087 3.629-2.865 6.297-4.066l2.637-1.21 2.816-1.286c7.442-3.448 14.439-7.124 21.161-11.832 1.329-.919 2.705-1.771 4.089-2.605z" fill="#0529a5"/><path d="M456.415 452.886h5.532l14.929.013 15.635.008 29.568.021 33.678.022L625 453l2 5c-.949 2.043-.949 2.043-2.687 4.188-3.406 4.505-6.407 9.104-9.312 13.938l-13.687 22.188L586 523l-5-1c1.764-4.972 4.394-9.434 7-14h2l.703-2.004c1.678-3.877 3.823-7.349 6.047-10.934l1.438-2.333 12.25-19.542 1.79-2.838c2.27-3.569 4.469-6.986 7.183-10.237 1.991-2.205 1.991-2.205 1.59-6.113l-2.554.493c-3.587.528-6.963.627-10.588.621h-2.108l-6.957-.016-5.003-.004-10.755-.018-17.005-.024-36.092-.051-38.975-.053-16.906-.028-10.512-.013-4.875-.011-6.654-.008-3.761-.007c-2.891.107-5.443.479-8.253 1.12-1.518.11-3.04.174-4.562.188l-2.254.043c-2.454-.259-4.019-1.086-6.184-2.23 9.802-1.197 19.559-1.135 29.415-1.114z" fill="#0a3ed4"/><path d="M225 242l2 1-3.312 3.813-1.863 2.145-3.367 3.492c-1.597 1.59-1.597 1.59-2.91 3.973-1.556 2.594-3.246 4.613-5.297 6.828-5.85 6.472-11.007 13.249-15.773 20.551-1.485 2.211-3.05 4.331-4.664 6.449-2.747 3.613-5.03 7.356-7.25 11.313C181 304 181 304 178.875 306.063c-2.005 1.748-2.005 1.748-2.375 3.938-.5 2-.5 2-2.25 3.688-3.233 3.323-5.081 7.246-7.25 11.313l-3 5c-5.665 9.366-10.987 18.938-16.312 28.5l-1.274 2.282c-4.105 6.876-4.105 6.876-6.914 14.281-1.076 4.169-3.892 7.585-6.5 10.938-.316-4.863.55-7.86 2.719-12.199l.876-1.769 2.905-5.719 1.012-1.997C147.696 350.151 155.646 336.508 164 323l1.889-3.064c6.864-11.091 13.973-21.907 21.866-32.293l3.644-4.873c4.732-6.371 9.588-12.619 14.602-18.77l1.633-2.009 5.555-6.804 1.802-2.212c3.173-3.863 6.401-7.516 10.011-10.976z" fill="#1231c8"/><path d="M111 726c2.952 2.952 3.387 6.619 4.375 10.563l.668 2.597 3.379 14.036c3.364 14.817 7.695 29.419 12.577 43.805l.901 2.716c7.014 21.136 15.231 41.682 24.955 61.721C159 864 159 864 159 866h-2c-11.54-23.825-11.54-23.825-16-35l-2.562-6C132 809.558 132 809.558 132 805h-2l-.312-3.062c-.505-3.855-.505-3.855-2.004-6.848-2.479-5.587-3.784-11.565-5.309-17.465l-1.852-7.086-.815-3.15c-.482-2.321-.482-2.321-1.708-3.389l-.437-3.187c-.641-4.347-1.812-8.125-3.594-12.133-1.047-2.896-1.337-5.364-1.531-8.43.05-3.437.05-3.437-1.437-6.25-.141-2.671-.042-5.324 0-8z" fill="#21369f"/><path d="M807 524h1v15l4.399-.032 16.304-.078 7.029-.041 10.158-.044 3.127-.031c12.676-.002 25.439 1.487 35.256 10.258 2.857 3.125 5.129 5.67 5.727 9.969l-1 2h-2c-1.227-1.539-1.227-1.539-2.625-3.625-5.156-7.067-12.049-11.716-20.375-14.375-4.524-.58-9.009-.605-13.566-.609l-3.863-.05-10.076-.079-10.318-.102L806 542l-.062-6.75-.035-3.797c.077-2.738.27-4.872 1.098-7.453z" fill="#2761ec"/><path d="M337 149v2c-1.617 1.262-1.617 1.262-3.875 2.688-3.478 2.237-6.883 4.536-10.25 6.938-2.733 1.93-5.424 3.74-8.375 5.313-3.973 2.181-7.334 5.063-10.832 7.926-2.645 2.118-5.349 4.104-8.105 6.074-7.663 5.522-14.917 11.345-21.562 18.063-5.713 5.402-11.483 10.651-17.625 15.563-7.702 6.215-14.418 13.23-20.836 20.742-1.979 2.179-4.162 3.967-6.539 5.695.581-3.328 1.574-4.936 3.984-7.277l1.836-1.807 1.93-1.854 1.883-1.842 3.685-3.587 9.952-9.938c6.066-6.123 12.114-12.163 18.73-17.695l2.879-2.473c16.702-14.325 34.208-27.845 52.621-39.902l2.157-1.426C333.633 149 333.633 149 337 149z" fill="#1137de"/><path d="M186 915c3.071 2.881 5.348 5.839 7.625 9.375 13.341 20.345 28.085 40.028 44.742 57.781a246.65 246.65 0 0 1 5.86 6.576c3.451 3.95 7.059 7.699 10.773 11.401l1.938 1.94 4.023 4.018 6.102 6.108 3.938 3.934 1.813 1.819c3.908 3.887 7.966 7.505 12.188 11.049l-2 1-5.062-3.5-2.848-1.969c-3.14-2.572-5.584-5.282-8.2-8.364-3.316-3.803-6.928-7.31-10.515-10.855l-2.234-2.221-4.255-4.22-4.776-4.797c-2.016-2.094-2.016-2.094-4.234-3.574-2.326-1.86-3.398-3.932-4.875-6.5l-1.687-1.687L233 981v-2h-2c-1.892-2.214-3.676-4.436-5.437-6.75l-1.486-1.922-2.83-3.693-3.094-3.963C217 961 217 961 217 959h-2l-2-5h-2v-3h-2l-.312-1.937L208 947l-3-1c-1.324-1.68-1.324-1.68-2.687-3.875-3.031-4.764-6.356-9.249-9.773-13.742C191 926 191 926 191 923h-2c-3-5.75-3-5.75-3-8z" fill="#1b2fa0"/><path d="M1041 942c0 6.727-5.673 12.243-9.738 17.203-1.999 2.472-3.925 4.985-5.834 7.526-4.656 6.18-9.625 11.929-14.912 17.575a224.85 224.85 0 0 0-5.953 6.633c-10.431 11.996-21.321 23.914-33.445 34.227-2.19 1.899-4.317 3.859-6.44 5.833-4.329 4.018-8.702 7.971-13.24 11.753l-2.379 1.984L947 1046l-3-1 2.859-2.457c7.191-6.196 14.306-12.451 21.262-18.91 2.204-2.015 4.43-3.977 6.691-5.926 4.435-3.868 8.601-7.973 12.75-12.145l2.17-2.158c4.077-4.084 7.975-8.267 11.742-12.638 1.878-2.175 3.826-4.281 5.776-6.391 4.536-5.028 8.695-10.298 12.844-15.645l9.219-11.605c3.993-4.973 7.91-9.984 11.688-15.125z" fill="#0f6dfa"/><path d="M289 1061l4.875 2.75 2.742 1.547c2.5 1.787 3.184 2.955 4.383 5.703 1.936.672 1.936.672 4 1l3 2v2l2.75.25c3.708.856 4.752 1.994 7.25 4.75l3 1 1.254 1.266c2.596 2.579 5.641 4.478 8.684 6.484l2.035 1.347c5.883 3.864 11.895 7.448 18.027 10.903l3.703 2.113c12.545 7.137 25.275 13.907 38.172 20.387l2.037 1.026c2.673 1.332 5.25 2.528 8.088 3.474v3c-6.632-2.083-12.676-5.141-18.875-8.25l-1.862-.931c-12.748-6.392-25.072-13.42-37.263-20.819l-2.278-1.374c-14.901-9.014-29.189-18.971-43.285-29.189l-2.472-1.769-2.282-1.673-2.014-1.463c-1.844-1.693-2.698-3.244-3.67-5.533z" fill="#162fa1"/><path d="M730 617h129l-1 2-35.007.391-16.267.182L730 620v-3z" fill="#2f95fb"/><path d="M456.415 452.886h5.532l14.929.013 15.635.008 29.568.021 33.678.022L625 453l-4 5v-4l-2.554.493c-3.587.528-6.963.627-10.588.621h-2.108l-6.957-.016-5.003-.004-10.755-.018-17.005-.024-36.092-.051-38.975-.053-16.906-.028-10.512-.013-4.875-.011-6.654-.008-3.761-.007c-2.891.107-5.443.479-8.253 1.12-1.518.11-3.04.174-4.562.188l-2.254.043c-2.454-.259-4.019-1.086-6.184-2.23 9.802-1.197 19.559-1.135 29.415-1.114z" fill="#1747ef"/><path d="M788 373c.649 17.095-1.295 34.015-3 51-2.326-4.276-2.482-7.65-1.5-12.437.618-2.731.618-2.731.5-6.25 0-3.312 0-3.312 1-5.312l-.062-5.93c.063-2.07.063-2.07.59-3.969.615-2.736.333-5.07.035-7.852l-.309-2.984L785 377c-13.311 6.444-13.311 6.444-26 14h-3v2l-3.375 1.625c-4.13 2.061-8.044 4.401-11.984 6.801-3.603 2.148-7.283 4.139-10.973 6.133l-7.418 4.066-2.176 1.203-4.117 2.406c-1.621.976-3.286 1.879-4.957 2.766l-2-1c21.805-13.004 43.85-25.579 65.982-38.016l2.678-1.508 2.332-1.31C785.442 373 785.442 373 788 373z" fill="#1687fb"/><path d="M579 524c1 2 1 2 .875 4.375-1.242 3.725-2.465 4.619-5.875 6.625-3.86.583-7.686.505-11.583.454l-3.549.002-11.606-.065-8.05-.017-19.018-.085-21.657-.087L454 535v-1c12.316-.777 24.569-1.133 36.909-1.075l8.484.024 17.983.051 20.939.056 8.283.032c9.192.026 18.248-.164 27.402-1.088l1-3h2l.438-1.937C578 525 578 525 579 524z" fill="#0434d1"/><path d="M329 503l2 1-2.773 2.738-3.602 3.574-1.828 1.803-1.758 1.748-1.619 1.603c-1.635 1.685-1.635 1.685-3.42 4.534h-2l-.719 1.723c-2.046 3.636-5.159 6.134-8.187 8.961-2.201 2.16-2.201 2.16-3.062 4.789-1.351 3.311-3.488 5.024-6.031 7.527-1.826 2.403-3.477 4.91-5.125 7.438l-1.301 1.947c-2.479 3.757-4.645 7.537-6.574 11.615h-3c7.167-19.774 23.275-37.369 37.875-52.125l1.622-1.65c2.936-2.913 5.753-5.435 9.503-7.225z" fill="#0c25a6"/><path d="M539 1151c8.96.341 17.734 1.035 26.594 2.438 11.867 1.782 23.747 2.551 35.719 3.25l6.361.393L623 1158l-1 2-10.25.063-2.934.025-2.832.01-2.603.016c-2.278-.109-4.188-.529-6.382-1.114-2.041-.044-4.084-.039-6.125 0-14.644.116-14.644.116-18.875-2h-3c-3 0-3 0-5-1h-3.062H558l-1-1c-2.524-.032-5.033.068-7.555.16C547 1155 547 1155 544 1153c-1.655-.385-3.322-.728-5-1v-1z" fill="#0a32c2"/><path d="M867 1122v2l-11.414 5.334-3.869 1.81c-11.794 5.526-23.748 10.287-35.967 14.793l-3.61 1.332-7.014 2.581-7.786 2.876-3.652 1.336-2.988 1.098c-2.885.898-5.711 1.412-8.699 1.84v-2h3v-2l1.836-.297c5.569-.994 10.52-2.499 15.727-4.695 4.519-1.868 9.188-3.315 13.859-4.754 4.138-1.305 7.142-2.554 10.578-5.254l5-1 3.188-1.625L838 1134l2 1v-2l2.449-.988 3.238-1.324 3.199-1.301c2.873-1.279 5.441-2.74 8.113-4.387 6.444-3 6.444-3 10-3z" fill="#084af1"/><path d="M626.39 63.736l8.29.027 10.129.034 3.656.013c6.191.051 12.367.223 18.547.578l3.62.205c3.358.406 6.209 1.222 9.368 2.407v1c-6.75.125-6.75.125-9-1-2.529-.046-5.035-.047-7.562 0A198.51 198.51 0 0 1 656 67l-1-1a80.05 80.05 0 0 0-4.833-.129l-3.129-.01-3.421.006-3.52-.003c-2.473-.001-4.947.001-7.42.005-3.738.005-7.475 0-11.212-.006-17.767-.195-17.767-.195-35.465 1.137l-1 1c-2.588.072-5.162-.004-7.75-.062-2.22-.196-2.22-.196-3.25 1.063-2.333.041-4.667.042-7 0l-1-2c20.216-2.45 40.043-3.434 60.39-3.264z" fill="#3375fa"/><path d="M814 457l27.202-.104 12.634-.047 12.216-.039 4.637-.022c8.626-.058 16.863.215 25.312 2.211v1l-2.486-.214c-10.72-.827-21.396-.939-32.146-.916a2255.9 2255.9 0 0 1-8.904-.006c-12.849-.004-25.637.408-38.465 1.137v-3z" fill="#16d2fa"/><path d="M534 102c-2.724 2.724-5.458 2.637-9.125 3.125-9.085 1.369-17.971 3.459-26.875 5.688l-2.106.527c-9.747 2.456-19.328 5.22-28.788 8.629C464 121 464 121 461 121l1-3c2.328-.879 2.328-.879 5.25-1.562 3.749-.897 7.177-2.003 10.75-3.437 1.492-.368 2.992-.703 4.5-1 3.345-.706 6.362-1.615 9.5-3 3.332-1.111 6.526-1.512 10-2l4-1 7.563-1.5c3.217-.66 6.142-1.379 9.188-2.625 4.175-1.124 7.01-.606 11.25.125z" fill="#104ef6"/><path d="M1041 942c0 6.727-5.673 12.243-9.738 17.203-1.999 2.472-3.925 4.985-5.834 7.526-4.645 6.165-9.594 11.906-14.881 17.529-2.795 3.009-5.428 6.125-8.012 9.316-1.798 1.67-3.141 2.038-5.535 2.426 3.327-3.924 6.706-7.774 10.188-11.562 4.56-5.048 8.739-10.337 12.906-15.707l9.219-11.605c3.993-4.973 7.91-9.984 11.688-15.125z" fill="#187cfb"/><path d="M289 1061l4.875 2.75 2.742 1.547c2.5 1.787 3.184 2.955 4.383 5.703 1.936.672 1.936.672 4 1l3 2v2l2.75.25c3.708.856 4.752 1.994 7.25 4.75l3 1 3 3 3.293 2.305 1.9 1.262 1.994 1.308 2.031 1.343c4.55 2.999 9.133 5.936 13.781 8.782l-2 2c-15.634-9.553-30.729-19.81-45.562-30.562l-2.472-1.769-2.282-1.673-2.014-1.463c-1.844-1.693-2.698-3.244-3.67-5.533z" fill="#142d9c"/><path d="M354 1081c3.549.677 6.257 2.134 9.383 3.922l3.249 1.84 1.724.982c13.067 7.432 26.367 14.271 39.865 20.891l11.405 5.678 3.227 1.613L425 1117l-2 2-4.937-2.375-2.777-1.336C413 1114 413 1114 412 1112l-2.133-.418c-3.57-.725-6.534-2.236-9.742-3.895l-2.06-1.051-4.547-2.339-8.189-4.181c-21.717-11.104-21.717-11.104-31.328-18.117v-1z" fill="#152ea7"/><path d="M890 558c4.67 5.686 4.183 11.174 4.188 18.25l.037 2.777c.023 10.671-2.071 18.945-9.725 26.723-2.441 2.392-4.649 4.349-7.5 6.25l-3-1 1.539-.996c8.172-5.647 12.725-12.431 14.992-22.121 1.403-8.627.513-16.073-2.07-24.387C888 561 888 561 890 558z" fill="#105ff5"/><path d="M780 460h1c.289 10.034-.319 19.859-1.216 29.851a466.89 466.89 0 0 0-1.442 21.997A115.78 115.78 0 0 1 777 525l-1-2c-1.644-.722-3.311-1.394-5-2l3-1 .184-3.465.254-4.473.119-2.287c.33-5.662.33-5.662 1.443-6.775.041-2 .043-4 0-6l-2-1 1-2h2l.184-3.762.254-4.926.119-2.475c.213-4.055.619-7.857 1.443-11.838.041-1.75.042-3.501 0-5.25a89.17 89.17 0 0 1 0-4.75l1-1z" fill="#2b93f7"/><path d="M807 524h1v15l4.558-.032 16.694-.078 7.234-.041 10.38-.044 3.283-.031h3.033l2.678-.013C858 539 858 539 860 541h-54c0-13 0-13 1-17z" fill="#0735d4"/><path d="M809 524h1l.063 4.875.035 2.742C810 534 810 534 809 536l53 1-1 2h-53c0-13 0-13 1-15z" fill="#04b6f9"/><path d="M1127 754h1c.5 7.36-1.333 13.504-3.5 20.5l-1.012 3.359L1121 786h-2l-.312 2.75c-1.164 8.179-2.97 17.815-6.687 25.25h-3a396.61 396.61 0 0 1 5.754-18.096c4.734-13.803 8.614-27.775 12.246-41.904z" fill="#2591fc"/><path d="M894 724c3.844 1.633 3.844 1.633 5.25 4.938 2.438 10.428.023 19.546-4.25 29.063h-3l.656-2.238c2.991-10.899 2.551-20.619 1.344-31.762z" fill="#0459f6"/><path d="M591 1156l65 1c-3 3-3 3-5.771 3.356l-3.322-.028-3.621-.016-3.785-.062-3.785-.016c-9.251-.08-9.251-.08-12.715-1.234a214.02 214.02 0 0 0-7.293-.535l-2.139-.13-6.755-.397-4.584-.275L591 1157v-1z" fill="#4466d7"/><path d="M337 149v2c-1.617 1.262-1.617 1.262-3.875 2.688-3.478 2.237-6.883 4.536-10.25 6.938-2.733 1.93-5.424 3.74-8.375 5.313-4.131 2.252-7.644 5.278-11.266 8.258C301 176 301 176 298 178c-2.187-.375-2.187-.375-4-1 9.367-7.273 18.968-14.136 28.813-20.75l3.199-2.168 3.008-2.004 2.691-1.8C334 149 334 149 337 149z" fill="#1239e3"/><path d="M1143 595l2 1 .537 20.978.187 7.132.253 10.269.098 3.205c.113 5.582-.173 10.151-2.074 15.416h-1v-58z" fill="#2b9bfd"/><path d="M579 524c1 2 1 2 .875 4.375-1.233 3.7-2.504 4.624-5.875 6.625-3.628.558-7.213.415-10.875.313l-3.407-.047-10.213-.208-11.522-.233L500 534v-1l2.228.007 20.958.045 10.771.024 10.426.019 5.843.018A257.11 257.11 0 0 0 574 532l1-3h2l.438-1.937C578 525 578 525 579 524z" fill="#023ce9"/><path d="M1110 364c2.056 2.616 3.691 5.158 5.121 8.16l1.14 2.389 1.177 2.513 1.218 2.581c2.42 5.192 4.638 10.377 6.396 15.837.821 2.18 1.752 4.118 2.824 6.18 2.399 4.711 4.111 9.592 5.813 14.59l.932 2.68c1.267 3.669 2.486 7.29 3.381 11.07h-2l-1.32-3.664c-3.346-9.224-6.835-18.327-10.795-27.309l-3.119-7.277-1.196-2.813-2.323-5.479c-1.993-4.673-4.081-9.217-6.525-13.673C1110 368 1110 368 1110 364z" fill="#20a1fc"/><path d="M412 138l3 2-1.882.879c-13.86 6.501-27.453 13.305-40.875 20.662l-3.141 1.72-2.771 1.53C364 166 364 166 361 167l1-3h2v-2l3.625-1.25c3.903-1.346 6.951-3.462 10.375-5.75 2.38-1.326 4.807-2.544 7.25-3.75l1.891-.957C391.746 148 391.746 148 394 148v-2l3.375-1.187c5.067-1.889 9.83-4.326 14.625-6.812z" fill="#1242ef"/><path d="M809 95c4.94.76 9.464 2.513 14.125 4.25l2.574.955c6.234 2.338 12.291 4.927 18.301 7.795l5.813 2.625c3.773 1.714 7.501 3.482 11.188 5.375l-2 2-2.625-1.375c-3.09-1.488-6.104-2.613-9.375-3.625v-2h-4v-2l-3-.25c-3.789-.526-6.61-1.974-9.949-3.77-2.096-1.002-4.041-1.581-6.301-2.105-3.07-.716-5.054-1.397-7.75-2.875l-7-3v-2z" fill="#2283fa"/><path d="M748 505c4.973 1.324 7.928 3.341 11.75 6.75 4.548 3.983 9.11 7.165 14.484 9.996L776 523v3c-3.456-.618-5.56-1.937-8.336-4.055l-2.477-1.863-2.562-1.957c-7.422-5.701-7.422-5.701-15.625-10.125l-.812 2.875C745 514 745 514 742 516c1.258-4.508 2.904-7.491 6-11z" fill="#1431b2"/><path d="M915 1093l2 2c-10.615 7.065-21.565 13.461-32.691 19.686-1.477.84-2.941 1.703-4.388 2.593-1.599.978-3.256 1.86-4.921 2.721l-3-1 1-2h4l1-3c1.777-.879 1.777-.879 3.938-1.562 2.791-.897 3.94-1.315 6.063-3.437h4l1-2c3.662-3.16 7.071-5.552 12-6v-2c2.188-1.508 2.188-1.508 5-3.125l2.813-1.633L915 1093z" fill="#0e58f9"/><path d="M605 587l1 4c-1.004 1.719-1.004 1.719-2.562 3.5-3.396 4.222-5.649 8.681-8.004 13.543-3.855 7.951-8.136 15.66-14.434 21.957l-1-2a102.55 102.55 0 0 1 3.848-6.879l1.239-2.079 2.626-4.37 3.957-6.603c4.271-7.141 8.591-14.225 13.33-21.068z" fill="#1347dd"/><path d="M677 466l3 1a104.06 104.06 0 0 1-8.285 14.438c-2.036 3.042-3.979 6.136-5.902 9.25l-1.98 3.199c-1.755 2.982-3.287 6.019-4.832 9.113a135 135 0 0 1-3 4.75l-1.5 2.297C653 512 653 512 650 514c1.593-4.422 3.85-8.355 6.25-12.375l1.289-2.178 8.199-13.572 1.919-3.139 3.783-6.155 1.751-2.854 1.569-2.544c1.368-2.244 1.368-2.244 2.24-5.182z" fill="#1a67fa"/><path d="M264 239h2c-1.452 3.35-3.282 5.505-5.887 8.047l-2.346 2.313-2.455 2.391c-5.687 5.562-11.166 11.182-16.312 17.25l-3.437 4-2.562 3c-.621-1.859-.621-1.859-1-4 1.603-1.862 3.176-3.374 5-5 4.008-3.891 7.913-7.831 11.563-12.062 6.769-7.84 6.769-7.84 10.438-10.937h2l.938-1.937C263 240 263 240 264 239z" fill="#1134d1"/><path d="M1140 800h2l-6.437 20.625-.869 2.695c-1.606 4.864-3.425 9.403-5.799 13.942-1.148 2.23-2.064 4.52-2.957 6.863-1.463 3.748-3.064 7.316-4.937 10.875l-2-2 1.363-2.105c1.709-3.022 2.772-5.904 3.824-9.207l1.043-3.238.77-2.449h2l2-10h2l2-11h2l.313-3c.596-4.283 2.073-8 3.688-12z" fill="#148cfc"/><path d="M107 800l3 1c.809 1.969.809 1.969 1.438 4.5 1.192 4.401 2.738 8.38 4.695 12.492.86 1.992 1.348 3.906 1.867 6.008l1.563 3.25c1.794 4.015 1.667 7.396 1.438 11.75-2.3-3.449-3.49-6.985-4.812-10.875-2.243-6.504-4.624-12.915-7.207-19.293-1.018-2.94-1.556-5.755-1.98-8.832z" fill="#192d9d"/><path d="M540 453h85l-4 5v-4l-2.271.492c-5.139.701-10.208.651-15.389.641l-3.455.003a3610.56 3610.56 0 0 1-7.255-.005c-3.627-.005-7.254 0-10.882.006-13.946.004-27.826-.31-41.748-1.137v-1z" fill="#1c64fa"/><path d="M616.688 90.938l3.574.027L623 91v1l28 1v1l-61 1v-2c3.79-.895 7.237-1.078 11.125-1 5.371.107 10.168-1.116 15.563-1.062z" fill="#1f67fa"/><path d="M466 1133c9.067.495 17.386 3.326 26 6l3.988 1.219L505 1143c-2 2-2 2-4.625 2.125L498 1145v-2l-3.875.125c-2.18.07-2.18.07-4.125-.125l-2-2c-2.029-.606-2.029-.606-4.312-1-3.429-.697-6.452-1.652-9.687-3a104.32 104.32 0 0 0-5-1v-2l-3 1v-2z" fill="#112fb4"/><path d="M1141 679c2.144 3.43 2.079 5.538 1.426 9.48l-.52 3.255-.594 3.452-.58 3.522-1.179 7.016-1.39 8.63-.727 4.52-.629 3.93c-.794 3.138-1.657 4.823-3.809 7.195l3.584-24.88.832-5.761 1.209-8.343.373-2.604.354-2.418.307-2.123C1140 682 1140 682 1141 679z" fill="#1e92fc"/><path d="M299 533l2 4-2.437 2.625c-3.096 3.604-5.686 7.449-8.25 11.438l-1.152 1.786c-2.293 3.616-4.31 7.292-6.16 11.152h-3c1.565-4.334 3.749-8.197 6.125-12.125l1.191-1.981c3.581-5.874 7.51-11.423 11.684-16.894z" fill="#1a2d9f"/><path d="M586 95c-3.953 2.499-8.242 2.759-12.781 3.324l-2.577.335-5.386.683-8.236 1.066-5.238.666-2.484.328c-3.721.454-6.704.664-10.297-.402h2l1-2 6 1v-3l2 1c2.041.071 4.083.084 6.125.063l3.32-.027L562 98v-2c8.252-2.001 15.588-1.99 24-1z" fill="#477ff8"/><path d="M493 82h-2v2l-2.125.551c-4.508 1.194-8.886 2.387-13.187 4.199-3.85 1.305-5.82 1.314-9.687.25l-2 4-7-1c1-2 1-2 4.324-3.148l4.363-1.227 4.648-1.312 2.366-.66 6.399-1.902 3.711-1.125 3.332-1.023c2.795-.589 4.217-.585 6.855.398z" fill="#1a53f8"/><path d="M107 445l2 3h-2v2l2 1-1.187 3.375c-2.603 7.772-4.655 15.72-6.812 23.625l-2-1c.368-7.914 1.899-14.746 4.563-22.187l.998-2.885L107 445z" fill="#1f37b3"/><path d="M405 1131c4.157.346 7.329 2.127 11 4 1.989.7 3.986 1.377 6 2v2l4-1 1 2c2.315.729 4.651 1.392 7 2l3 1v2c-4.453.575-7.419-.942-11.336-2.789-3.054-1.388-6.153-2.584-9.289-3.773-4.509-1.713-8.963-3.488-13.375-5.437l2-2z" fill="#263fad"/><path d="M82 553h1l-.035 3.211-.027 4.164-.025 2.117c-.096 3.881-.096 3.881 1.088 7.508l-.75 5.898c-.323 2.308-.323 2.308-.187 5.477C83 584 83 584 81 586c-.463 2.662-.463 2.662-.625 5.625l-.227 3.039L80 597h-1c-.62-14.795 1.256-29.329 3-44z" fill="#2b3fab"/><path d="M127 464h1c-.449 7.955-2.222 15.242-4.437 22.875l-.947 3.375c-2.536 8.901-2.536 8.901-4.615 12.75-1.133-3.649-.628-6.046.398-9.727.638-2.411 1.094-4.82 1.539-7.273.751-3.845 1.81-7.342 3.266-10.973 1.423-3.62 2.59-7.33 3.797-11.027z" fill="#152eac"/><path d="M125 778c2.096 3.144 2.789 5.491 3.75 9.125 1.809 6.589 3.995 12.972 6.407 19.364.669 1.818 1.263 3.663 1.843 5.511l-1 2c-2.503-2.938-3.469-5.179-4-9h-2l-.312-3.062c-.499-3.906-.499-3.906-2.187-7.062-2.468-5.237-2.252-11.187-2.5-16.875z" fill="#2b40a2"/><path d="M121 410l2 2-.805 1.977c-1.535 3.799-3.045 7.565-4.32 11.461C117 428 117 428 115 431l-1 3.125C113 437 113 437 111 438c.601-5.551 1.987-10.444 3.875-15.687l.777-2.26c1.35-3.803 2.638-6.978 5.348-10.053z" fill="#1630b5"/><path d="M98 478l1 2 2 1-2 3-1 4.875c-.509 2.773-1.003 5.131-2.062 7.75C94.59 500.039 94.371 503.353 94 507l-2-1c-.656-9.348 1.389-19.755 6-28z" fill="#273eb2"/><path d="M785 373h3c.649 17.095-1.295 34.015-3 51-2.326-4.276-2.482-7.65-1.5-12.437.618-2.731.618-2.731.5-6.25 0-3.312 0-3.312 1-5.312l-.062-6.027C785 392 785 392 786 389l.563-7.687.131-2.127L787 374l-2-1z" fill="#2e98fb"/><path d="M711 648l2 3-1.469 2.352c-5.034 8.113-9.843 16.331-14.531 24.648h-3c1.298-3.45 2.804-6.538 4.715-9.687l1.58-2.617 1.643-2.695 1.631-2.695 3.021-4.98L711 648z" fill="#1f60f4"/><path d="M255 211l3 1-2.895 2.641c-7.329 6.736-14.346 13.565-20.934 21.031C232 238 232 238 229 240c.581-3.328 1.574-4.936 3.984-7.277l1.836-1.807 1.93-1.854 1.883-1.842 3.671-3.573L249 217l6-6z" fill="#092bd5"/><path d="M631 544l2 3-1.207 1.539c-3.096 4.022-5.558 7.89-7.793 12.461l-2.062 2.563c-2.022 2.294-2.022 2.294-2.875 4.875-1.442 3.477-3.574 5.746-6.062 8.563l-1-2c.877-1.888.877-1.888 2.281-4.184l1.544-2.548 1.675-2.706 1.667-2.733L631 544z" fill="#114dec"/><path d="M493 108h2l-1 4-3.875.988-5.125 1.324-2.543.646c-4.037 1.048-7.966 2.173-11.863 3.666A39.07 39.07 0 0 1 461 121l1-3c2.328-.879 2.328-.879 5.25-1.562 3.749-.897 7.177-2.003 10.75-3.437 1.492-.368 2.992-.703 4.5-1 5.701-1.037 5.701-1.037 10.5-4z" fill="#1048f5"/><path d="M317 1056c4.964 1.616 8.767 4.524 12.938 7.563 7.531 5.41 15.21 10.509 23.063 15.438-3 1-3 1-4.67.211l-1.799-1.266-1.98-1.363-2.051-1.457-4.031-2.805-1.799-1.273c-1.805-1.224-1.805-1.224-4.67-2.047v-2l-1.676-.781c-2.656-1.393-5.052-3.004-7.512-4.719l-2.668-1.844C318 1058 318 1058 317 1056z" fill="#162da4"/><path d="M525.871 718.621L528 719l-1 2h-2l-.652 1.715c-1.8 3.053-4.11 4.69-6.91 6.848-4.185 3.016-4.185 3.016-6.437 7.438l-6 2 6-7 1.381-1.607 4.681-5.33 1.534-1.794c3.758-4.184 3.758-4.184 7.274-4.648z" fill="#102ea2"/><path d="M1170 632h1l.063 13 .025 3.699c.017 6.2-.115 12.173-1.088 18.301l-2-1-.062-4.187-.035-2.355c.098-2.457.098-2.457.602-4.648.739-4.183.56-8.321.496-12.559l-.062-5.172-.035-2.3C1169 633 1169 633 1170 632z" fill="#259dfd"/><path d="M657 447l2 1-3 2c-.73 2.563-.73 2.563-1 5h-2l12 4c-4 2-4 2-7.016 1.32l-3.234-1.195-3.266-1.18L649 457l-1-5 4.375-2.562 2.461-1.441L657 447z" fill="#1f37a8"/><path d="M876 703c7.236 3.472 7.236 3.472 9 7l-2 2-2.852-1.496-3.773-1.941-1.871-.986c-3.837-1.959-7.221-3.108-11.504-3.576 4.502-2.606 8.055-2.277 13-1z" fill="#1c4be2"/><path d="M558 69l-1 2-7 1-4 1c-7.357 1.051-14.576 1.103-22 1v-1l3.938-.375c3.253-.356 6.378-.872 9.563-1.625 6.811-1.59 13.518-2.149 20.5-2z" fill="#326df9"/><path d="M1119 782c1.016 3.154.953 5.121.074 8.301l-.666 2.463-.721 2.549-.686 2.514L1115 805l-.58 2.095c-1.302 4.668-1.302 4.668-2.42 6.905h-3l6.688-21.625.971-3.043L1119 782z" fill="#399afb"/><path d="M891 585h1c1.104 5.821 1.386 8.866-2 14-3.579 4.747-7.86 9.913-13 13l-3-1 1.539-.996c9.329-6.446 13.129-14.058 15.461-25.004z" fill="#1d96fa"/><path d="M528 1167l1.645.844c3.803 1.867 7.984 2.306 12.131 3.012 1.754.321 3.491.726 5.225 1.145l1 2c-6.616-.407-13.106-1.265-19.625-2.437l-2.154-.37c-1.755-.328-3.491-.752-5.221-1.192l-1-2 2.875.063c3.032.163 3.032.163 5.125-1.062z" fill="#1d3eb9"/><path d="M350 672h1l.402 3.254.535 4.309.264 2.135L354 695l-1-2h-2l-1 4-3-16 2 1 1-10z" fill="#1f3083"/><path d="M637 64c34.083-.304 34.083-.304 43 3v1c-6.75.125-6.75.125-9-1-2.529-.046-5.035-.047-7.562 0A198.51 198.51 0 0 1 656 67l-1-1c-1.34-.156-2.688-.25-4.035-.316l-2.451-.127-2.576-.119-2.588-.131L637 65v-1z" fill="#3a82fa"/><path d="M863 1099v2c-8.163 4.484-16.204 8.854-25 12l-2-2 12.375-6 3.563-1.734 3.398-1.641 3.142-1.523C861 1099 861 1099 863 1099z" fill="#1c5df5"/><path d="M252 1030c4.515 1.419 6.791 3.567 10 7l4.125 4.25 2.008 2.078c1.864 1.891 1.864 1.891 4.867 2.672a210.03 210.03 0 0 1 4 5l2 1-1 2c-6.211-4.929-12.226-10.01-18.062-15.375l-1.696-1.55c-2.43-2.253-4.394-4.304-6.241-7.075z" fill="#19319f"/><path d="M475.438 760.313L477 761c-5.077 4.207-11.929 6.95-18.562 7.031-2.187-.281-2.187-.281-5.437-1.031v-1l2.598-.551c7.409-1.548 7.409-1.548 14.465-4.199C473 760 473 760 475.438 760.313z" fill="#1f3191"/><path d="M363 135l-2.191 1.313-5.273 3.188c-4.436 2.691-8.845 5.278-13.535 7.5l-2-2 9.25-5.562 2.645-1.615 2.559-1.514 2.349-1.412c2.556-1.042 3.657-.851 6.198.104z" fill="#163ee9"/><path d="M490 1160l3.25.938c5.306 1.564 5.306 1.564 10.75 2.063a103.73 103.73 0 0 1 5 2v2l3 1c-8.028-.554-15.339-2.657-23-5l1-3z" fill="#324cb9"/><path d="M79 642l3 2c.356 1.828.356 1.828.328 4.035l-.016 2.455-.062 2.572-.016 2.49c-.07 5.541-.548 10.95-1.234 16.447h-1c-.878-10.034-1.118-19.936-1-30z" fill="#172d9b"/><path d="M131 389c1 2 1 2 .379 3.879l-1.031 2.253-1.104 2.441-1.182 2.551-1.17 2.574L124 409h-2c.322-7.074 3.417-12.974 7-19l2-1z" fill="#1e38be"/><path d="M520 76c-2.78 1.509-5.276 2.391-8.375 3-2.738.558-5.065 1.171-7.687 2.188-3.982 1.102-6.881.512-10.937-.187 3.879-2.268 8.047-3.157 12.375-4.187l2.25-.576c4.461-1.068 7.825-1.37 12.375-.236z" fill="#235ef8"/><path d="M651 1177h19c-5.117 2.559-9.069 3.128-14.738 3.098l-3.232-.01-3.342-.025-3.4-.014L637 1180v-1l14-1v-1z" fill="#2853d7"/><path d="M991 721h1c1.146 6.418 1.184 12.742 1.188 19.25l.037 3.238c.013 7.051-.709 13.626-2.225 20.512-.855-3.185-1.106-5.944-1.062-9.25l.027-2.703L990 750h2l-1-29z" fill="#499cfc"/><path d="M438 1145c5.658.496 9.78 1.627 15 4l7 2c1.354.625 2.699 1.272 4 2-7.287 2.429-18.147-3.099-25-6l-1-2z" fill="#0d28a5"/><path d="M439 126h5l1 2-2.273.699c-6.213 1.98-11.94 4.225-17.668 7.348C423 137 423 137 420 137l1-3c2.331-1.119 4.597-2.072 7-3l3.688-1.687C435 128 435 128 439 128v-2z" fill="#1043f3"/><path d="M698 96l17 2v2l4-1 1 3-22-3v-3z" fill="#1266f8"/><path d="M1132 512l3 1 .184 1.863.254 2.449.246 2.426c.269 2.423.269 2.423 1.316 5.262l-.098 6.059c.119 2.367.787 3.976 2.098 5.941l-3 2c-1.792-8.983-3.437-17.838-4-27z" fill="#30a2fa"/><path d="M351 484l2 1v3l-2 1v-2h-2l-.762 1.801c-2.549 4.527-7.322 7.64-12.238 9.074l-2 .125c3.532-3.689 7.185-6.774 11.313-9.812l1.666-1.232L351 484z" fill="#1831bd"/><path d="M590 512c1 3 1 3 .004 5.043l-1.441 2.145-1.434 2.168L586 523l-5-1c2.826-7.469 2.826-7.469 6.625-9.187L590 512z" fill="#0937c9"/><path d="M778 116h10v3l1.652.367 4.75 1.066 5.164 1.039 2.434.465 2.25.402 1.75.66 1 3c-9.841-2.471-19.401-5.737-29-9v-1z" fill="#4590fb"/><path d="M1099 838l2 1c-1.628 7.001-4.446 13.76-8 20l-3 1c1.548-4.958 3.518-9.638 5.625-14.375l.984-2.23L1099 838z" fill="#268ffc"/><path d="M972 802h3c-1.444 4.3-3.608 7.276-6.5 10.75l-2.406 2.922C964 818 964 818 962 819c-.125-2.375-.125-2.375 0-5l2-2h3l1-3c1.266-2.375 2.641-4.676 4-7z" fill="#2360cd"/><path d="M946 830h4c-1.421 4.263-4.578 5.712-8.187 8.063l-2.002 1.354c-3.827 2.528-7.342 4.354-11.811 5.584l1-3 7-3c1.018-.982 2.025-1.976 3-3h3v-2l4-2v-2z" fill="#1c4ebb"/><path d="M104 574c2 2 2 2 2.23 4.215-.105 6.636-.516 13.186-1.23 19.785l-4-5 .996-2.148c1.078-3.062 1.178-5.25 1.066-8.477-.102-3.25-.1-5.261.938-8.375z" fill="#1f34a6"/><path d="M746 106h7v2l11 1v3c-6.575-.62-12.667-2.149-19-4l1-2z" fill="#2d7efa"/><path d="M736.875 102.438l2.375.447L745 104v3c-7.954-.454-15.328-1.871-23-4v-1c5.336-1.287 9.603-.612 14.875.438z" fill="#0c64f9"/><path d="M1089 915c-1.647 4.585-3.965 8.638-6.437 12.813l-1.197 2.1c-1.036 1.75-2.193 3.427-3.365 5.088h-3l5-9h2l.813-3.812C1084.606 915 1084.606 915 1089 915z" fill="#1b89fc"/><path d="M883 769l1 3c-12.54 8.457-12.54 8.457-19.312 7.563L862 779v-1l3.875-.687c6.14-1.353 12.623-3.81 17.125-8.312z" fill="#1b6dfb"/><path d="M109 704h1l1.563 9.75.459 2.789.42 2.695.397 2.476c.166 2.351-.136 4.054-.838 6.29-2.29-3.435-2.178-4.985-2-9h-2l1-15z" fill="#3b4fae"/><path d="M615 470l2 1c-1.45 4.11-3.511 7.433-6 11l-3-2 2-2 .938-3.562L612 471l3-1z" fill="#0a36c7"/><path d="M451 453l-1 2c-7.117 1.497-16.514 2.679-23-1 8.023-.9 15.93-1.115 24-1z" fill="#224ae3"/><path d="M896 736h1c1.294 8.059.641 14.285-2 22h-3l.621-2.273c1.733-6.584 2.943-12.93 3.379-19.727z" fill="#195af8"/><path d="M81 681h1l1 12 3 1c.083 4.833-.047 9.237-1 14h-1l-1.5-9-.434-2.543c-.851-5.229-1.214-10.16-1.066-15.457z" fill="#4053b5"/><path d="M221 287l2 1-5.875 7.938-1.684 2.287-1.621 2.178-1.492 2.015C211 304 211 304 209 305c.506-2.169 1-4 2-6h2l.375-1.937L214 295l2-1 3-5 2-2z" fill="#1034d0"/><path d="M589 614h2c-1.448 7.094-4.977 10.977-10 16l-1-2c1.223-2.271 2.483-4.4 3.875-6.562l1.145-1.826c2.786-4.417 2.786-4.417 3.98-5.611z" fill="#0f3fd1"/><path d="M1166 546h1c1.794 8.744 2.237 17.085 2 26-2-2-2-2-2.125-4.391l.125-2.859c.098-4.438-.567-7.547-2-11.75.375-3.875.375-3.875 1-7z" fill="#43aefd"/><path d="M748 505c5.662 1.477 5.662 1.477 7.375 4.125L756 511c-3.147-.699-6.026-1.761-9-3l-.812 2.875C745 514 745 514 742 516c1.258-4.508 2.904-7.491 6-11z" fill="#152da5"/><path d="M519 1147c6.675-.455 12.594 1.233 19 3l-1 2h-4v-2l-1.672.559c-2.813.533-4.793.127-7.578-.496l-2.703-.59L519 1149v-2z" fill="#0929b4"/><path d="M144 419c1.127 3.38.934 3.843-.363 6.977l-.939 2.281-1.01 2.367-.975 2.391c-2.448 5.852-2.448 5.852-4.713 6.984.541-5.297 1.842-9.215 4-14v-2h2l2-5z" fill="#0d27b0"/><path d="M285 1030c3.085 1.392 5.37 3.044 7.875 5.313A330.38 330.38 0 0 0 303 1044l-3 1-2-2.125c-2.811-2.843-5.946-5.081-9.23-7.348-1.949-1.683-2.782-3.171-3.77-5.527z" fill="#162ca5"/><path d="M1114 866c1 3 1 3 .287 4.993l-1.158 2.238-1.24 2.432-1.326 2.525-1.314 2.561L1106 887l-2-3 1-2h2l.875-3.75c.738-2.974 1.57-5.584 3.125-8.25h2l1-4z" fill="#178cfc"/><path d="M895 570h1c1.05 7.589 1.354 13.023-2 20-1.268-3.805-.901-7.193-.625-11.125l.133-2.246c.362-5.499.362-5.499 1.492-6.629z" fill="#0495fa"/><path d="M1138 545c2.756 2.756 2.581 4.914 3.063 8.75.571 4.434 1.174 8.845 1.938 13.25l-2 1c-1.775-7.636-2.534-15.181-3-23z" fill="#1793fc"/><path d="M106 679h1l1 8 .289 2.254c.603 4.955.802 9.755.711 14.746h-1l-.402-1.863-.535-2.449-.527-2.426c-.534-2.407-.534-2.407-1.535-5.262.086-2.232.239-4.462.438-6.687l.309-3.574L106 679z" fill="#5163b8"/><path d="M860 540l4.75.375 2.672.211c2.569.413 4.337 1.126 6.578 2.414-3 2-3 2-5.812 1.75-3.145-.74-6.146-1.664-9.187-2.75l1-2z" fill="#215eea"/><path d="M649 514c.609 1.852.609 1.852 1 4l-4 5-1.437 3c-1.736 3.333-3.809 5.47-6.562 8 1.64-4.639 4.069-8.639 6.625-12.812l1.273-2.1L649 514z" fill="#155cf9"/><path d="M769 1138c-4.811 3.207-6.872 4.24-12.687 4.125l-3.574-.055L750 1142c3.085-1.666 6.127-2.738 9.5-3.687l2.844-.824c2.664-.49 4.132-.375 6.656.512z" fill="#3a6aea"/><path d="M420 1138h6l1 2 7 2 3 1v2c-4.548.405-7.319-.893-11.312-3l-3.238-1.687L420 1139v-1z" fill="#142fa5"/><path d="M151 403c1.392 4.176-.046 5.79-1.937 9.688l-1.715 3.574L146 419h-1c-.286-7.429-.286-7.429 2-11h2l2-5z" fill="#102db5"/><path d="M289 218c-1.55 3.884-4.005 6.03-7.125 8.75l-2.758 2.422L277 231l-1-3c9.753-10 9.753-10 13-10z" fill="#143bdc"/><path d="M915 147c4.217 1.486 7.625 3.612 11.313 6.125l3.238 2.195L932 157c-1.785.676-1.785.676-4 1-1.746-1.145-1.746-1.145-3.437-2.812-2.752-2.568-5.034-3.838-8.562-5.187l-1-3z" fill="#0f87fb"/><path d="M540 693c1.048 4.193.996 4.943-.625 8.688l-.977 2.387C537 706 537 706 532 707l8-14z" fill="#1b35ad"/><path d="M691 682c2 3 2 3 1.813 5.125L692 689l-3 1c-1.709 3-1.709 3-3 6l-3-1 8-13z" fill="#1a56eb"/><path d="M1141 679c1.83 3.077 2.191 4.819 1.539 8.328l-.43 2.422-.484 2.5-.461 2.547L1140 701h-1c-.194-7.656-.348-14.663 2-22z" fill="#198efc"/><path d="M86 535c1.414 2.639 2.372 5.071 3 8h-3l-2 10h-1c-.216-5.936.288-11.288 2-17l1-1z" fill="#3045b0"/><path d="M158 385h2c-.539 4.598-1.766 7.868-4.062 11.875l-1.66 2.93L153 402h-2c1.562-4.036 3.315-7.972 5.098-11.914.992-2.21.992-2.21 1.902-5.086z" fill="#1333bd"/><path d="M397 115v2h-2l-1 3c-2.066.949-2.066.949-4.562 1.688l-2.504.762L385 123l-2-2 5.875-3 3.305-1.687C395 115 395 115 397 115z" fill="#1e4bf0"/><path d="M107 800l3 1c1.02 2.145 1.02 2.145 1.813 4.813l.832 2.645c.41 2.931-.073 4.091-1.645 6.543l-2-6.375-1.125-3.586C107 802 107 802 107 800z" fill="#2035a3"/><path d="M263 603h1c.386 6.822-.991 12.496-3 19h-1c-.337-6.963.697-12.433 3-19z" fill="#232f8d"/><path d="M624 454h2c.652 1.766.652 1.766 1 4-.996 1.922-.996 1.922-2.437 3.75l-1.434 1.859L622 465c-1.187-1.625-1.187-1.625-2-4 2.1-5.1 2.1-5.1 4-7z" fill="#133cc1"/><path d="M475 87l-1.898.297-2.477.453-2.461.422c-2.341.646-2.341.646-3.453 2.906L464 93l-7-1c1-2 1-2 3.801-3.105l3.512-1.082 3.488-1.105c2.995-.662 4.397-.793 7.199.293z" fill="#3366f7"/><path d="M390 1124l4.25 1.375 2.391.773c2.226.803 4.269 1.749 6.359 2.852v3c-4.972-1.492-9.418-3.605-14-6l1-2z" fill="#1e37a6"/><path d="M1133 733c1.415 4.246.225 7.363-.812 11.625l-.541 2.391c-.479 2.013-1.056 4.002-1.646 5.984l-2 1c1.743-14.781 1.743-14.781 5-21z" fill="#198dfc"/><path d="M264 239h2c-1.536 3.681-3.782 5.988-6.625 8.75l-2.477 2.422L255 252l-1-3a141.4 141.4 0 0 1 5-5h2l.938-1.937C263 240 263 240 264 239z" fill="#1538d5"/><path d="M938.297 1079.324L940 1080l-6.375 4.5-1.828 1.301c-4.57 3.199-4.57 3.199-6.797 3.199v-2h2v-2c1.828-1.543 1.828-1.543 4.25-3.187l2.391-1.668c2.359-1.145 2.359-1.145 4.656-.82z" fill="#1264fb"/><path d="M80 570h1l.563 7.438.17 2.143L82 585l-1 1-.562 5.563-.254 3.066L80 597h-1c-.102-9.063-.07-17.982 1-27z" fill="#596cbc"/><path d="M1113 444c3.858 3.502 5.719 7.887 6.188 13.078 0 1.642-.085 3.283-.187 4.922-2.01-3.015-2.992-5.575-4.125-9l-1.07-3.187C1113 447 1113 447 1113 444z" fill="#2aa3fb"/><path d="M657 447l2 1-3 2c-.73 2.563-.73 2.563-1 5l-6-1-1 2v-4l4.375-2.562 2.461-1.441L657 447z" fill="#1866ed"/><path d="M1008 263c3.88 1.521 5.739 3.861 8.25 7.125l2.141 2.758L1020 275l-1 2-4.937-5.312-1.42-1.514c-2.2-2.389-3.603-4.055-4.643-7.174z" fill="#1590fa"/><path d="M843 109c6.423.829 13.106 3.745 18 8l-2 1c-2.018-.963-4.015-1.97-6-3-1.989-.7-3.986-1.377-6-2v-2h-4v-2z" fill="#107dfb"/><path d="M807 1125c-5.23 4.262-9.252 5.265-16 5 2.861-1.907 5.353-3.004 8.563-4.187l2.941-1.105C805 1124 805 1124 807 1125z" fill="#346cf0"/><path d="M877 704c5.75 2.625 5.75 2.625 8 6l-2 2-7-4 1-4z" fill="#1343e0"/><path d="M1121 469h2c1.657 3.752 2.502 7.264 3.125 11.313l.508 3.238L1127 486h-2l-2-6.812-1.125-3.832C1121 472 1121 472 1121 469z" fill="#1f9cfb"/><path d="M466 1133c5.569.48 10.671 1.299 16 3-2.341 1.45-3.58 2.043-6.359 1.758l-2.391-.633-2.422-.617L469 1136v-2l-3 1v-2z" fill="#1a35b4"/><path d="M625 795l2 2-3.75 4.438-2.109 2.496c-2.154 2.079-3.224 2.705-6.141 3.066 6.15-8.446 6.15-8.446 10-12z" fill="#1d359a"/><path d="M915 466c4.85-.346 7.869.406 12 3l1 3-4.812-1.312-2.707-.738c-2.533-.969-3.752-1.899-5.48-3.949z" fill="#87f2fd"/><path d="M121 410l2 2c-2.481 6.698-2.481 6.698-5.109 8.227L116 421l1.375-4.375.773-2.461C119 412 119 412 121 410z" fill="#1e37b9"/><path d="M473 1158c10.558-.369 10.558-.369 15 2v2l-5.812-.875-3.27-.492C476 1160 476 1160 473 1158z" fill="#344cbb"/><path d="M516 727l1 3-2.437 1.813c-2.786 1.997-2.786 1.997-3.562 5.188l-6 2c3.509-4.184 7.081-8.196 11-12z" fill="#1a32a6"/><path d="M1126 487c3 3 3.408 3.57 4.125 7.438l.445 2.309.43 2.254.555 2.098C1132 503 1132 503 1132 506h-2l-4-19z" fill="#1497fb"/><path d="M427 456l-7 2v1h-11c3.269-1.634 5.513-2.48 9-3.187l2.563-.543c2.468-.273 4.096-.034 6.438.73z" fill="#3356df"/><path d="M135 441c1.192 3.463.807 5.653-.25 9.125l-.766 2.633C133 455 133 455 130 457c1.097-5.691 2.541-10.746 5-16z" fill="#132baf"/><path d="M161 329l3 1c-2.06 3.605-4.351 6.803-7 10 .438-4.557.85-7.577 4-11z" fill="#0c2ac2"/><path d="M994 248c3.452 1.477 5.65 3.438 8.25 6.125l2.141 2.195L1006 258l-1 3-5.5-5.937-1.59-1.709c-3.91-4.24-3.91-4.24-3.91-5.354z" fill="#128ffa"/><path d="M983 237c3.243.559 4.931 1.413 7 4v2l4 2-1 3-5-4.937-2.812-2.777C983 238 983 238 983 237z" fill="#098df9"/><path d="M435 100c-6.074 4.902-6.074 4.902-9.937 5.313L423 105l-1-2 5.375-2.062 3.023-1.16C433 99 433 99 435 100z" fill="#2c5af6"/><path d="M680 94h7l1 1h7l1 3-7.437-.875-2.143-.238L681 96l-1-2z" fill="#0962f8"/><path d="M528 1167l4 2v2c-8.571.286-8.571.286-12-2v-1l2.875.063c3.032.163 3.032.163 5.125-1.062z" fill="#1533b0"/><path d="M795 1153c-3.004 2.003-4.71 2.493-8.187 3.125l-2.73.508L782 1157v-2h3v-2c3.576-1.238 6.337-.749 10 0z" fill="#1c56ec"/><path d="M303 1045c3.283 1.491 5.931 3.386 8.75 5.625l2.422 1.914L316 1054l-2 1-5.5-3.875-3.094-2.18L303 1047v-2z" fill="#142aa1"/><path d="M116 744c1.84 2.76 2.483 4.297 3.188 7.438l.543 2.309c.285 2.383-.002 3.985-.73 6.254v-3l-3-1-1-5h2l-1-7z" fill="#374aac"/><path d="M605 453h20l-4 5v-4l-2.375.563c-4.664.563-8.985.034-13.625-.562v-1z" fill="#1470f4"/><path d="M408 109l2 1-1 3-2.75.375c-2.84.546-4.776 1.198-7.25 2.625l-2-2 5.375-2.562 3.023-1.441L408 109z" fill="#315ef3"/><path d="M553 672c1.077 3.232 1.174 3.931 0 7-1.937 2.75-1.937 2.75-4 5h-2c1.566-4.308 3.683-8.062 6-12z" fill="#1736b4"/><path d="M67 569h1c1.517 14.781 1.517 14.781-1 21h-1c-.121-7.077.146-13.972 1-21z" fill="#a8a7a8"/><path d="M672 438l2 1c-6.897 6.862-6.897 6.862-11.5 7.438L660 446c2.611-2.067 5.338-3.931 8.125-5.75l2.07-1.359L672 438z" fill="#186df9"/><path d="M253 250l1 3-8 8-2-1 9-10z" fill="#052ad2"/><path d="M967 222c4.257.473 6.257 2.886 9 6l1 3h2l-1 2-3.812-3.25-2.145-1.828c-1.962-1.846-3.5-3.721-5.043-5.922z" fill="#2193fa"/><path d="M826 133c5.277.539 9.256 1.773 14 4v2c-5.07-.654-9.42-2.855-14-5v-1z" fill="#2f89fb"/><path d="M764 112c8.787-.298 8.787-.298 13 2l1 2c-4.869-.596-9.328-1.57-14-3v-1z" fill="#428cfc"/><path d="M457 1153h9l1 3 6 1c-3.882 1.498-6.434.431-10.25-.937l-3.266-1.152L457 1154v-1z" fill="#475fc0"/><path d="M506 1144l4.375.313 2.398.238C515 1145 515 1145 518 1147c-2.892.826-4.887 1-8 1l-2-2-3-1 1-1z" fill="#0628af"/><path d="M580 526c.883 2.467 1.131 3.639.223 6.141l-1.16 2.109-1.152 2.141L577 538l-1-3-2-1 3-3h2l1-5z" fill="#143abb"/><path d="M596 1177v2l-4.812.125-2.707.07C586 1179 586 1179 583 1177c4.629-1.016 8.345-.838 13 0z" fill="#0f35c2"/><path d="M683 1174l7 1c-2 2-2 2-5.477 2.195l-4.148-.07-2.141-.027L673 1177v-1h10v-2z" fill="#0938d2"/><path d="M840 1133l3 1c-3.125 2.524-6.313 4.397-10 6l-2-1c2.218-3.327 3.276-3.883 7-5l2 1v-2z" fill="#1356f6"/><path d="M1138 696h1c1.015 4.625 1.049 8.369 0 13l-3 3 2-16z" fill="#369ffc"/><path d="M748 503c6.471 2.196 6.471 2.196 8.438 5.188L757 510l-3.187-2.125c-3.126-1.838-3.126-1.838-6.75-1.125L745 508c.375-1.937.375-1.937 1-4l2-1z" fill="#0367eb"/><path d="M101 467h2c-.468 4.056-.88 7.466-3 11-1-1-1-1-1.187-3.812.18-3.054.611-4.625 2.188-7.187z" fill="#0a23ad"/><path d="M409 460h-2v2l-4.375 1.125-2.461.633L398 464l-2-2 4.25-1.562 2.391-.879c2.55-.604 3.913-.406 6.359.441z" fill="#2444d7"/><path d="M225 242l2 1-7 8-3-1 8-8z" fill="#1739d3"/><path d="M474 118l-4.812 1.5-2.707.844C464 121 464 121 461 121l1-3c1.707-.801 1.707-.801 3.813-1.312l2.082-.551c2.586-.168 3.913.548 6.105 1.863z" fill="#2357f4"/><path d="M661 92l7 1v2h-13v-1h6v-2z" fill="#2573fa"/><path d="M730 1148c-5.059 2.724-9.29 4.679-15 3v-1c5.225-1.467 9.581-2.226 15-2z" fill="#0539dd"/><path d="M446 1126c4.969.514 9.29 1.234 14 3l-3 2v-2l-2.125.688c-3.752.408-5.669-.824-8.875-2.687v-1z" fill="#253fb2"/><path d="M1127 754h1c.143 8.571.143 8.571-1 12h-2l-1 2c.715-4.764 1.795-9.342 3-14z" fill="#3199fc"/><path d="M981 600c1.26 3.779.481 5.034-.937 8.688l-1.152 3.012L978 614h-1c.467-5.414 1.243-9.205 4-14z" fill="#299cf8"/><path d="M776 511h1l-1 12-5-2 3-1 .438-3.937c.438-3.937.438-3.937 1.563-5.062z" fill="#096ef1"/><path d="M107 445l2 3h-2v2l2 1-2 3h-2l-1 4c-1-2-1-2-.223-4.602l1.16-3.023 1.152-3.039L107 445z" fill="#364dbd"/><path d="M862 115l6 2v2h4l1 3c-4.234-1.311-8.074-2.944-12-5l1-2z" fill="#c2e2fd"/><path d="M645 1157h11c-3 3-3 3-6.687 3.188L646 1160l-1-3z" fill="#0f3fcf"/><path d="M751.188 1141.938l2.73.027L756 1142l-2 3c-2.806.281-4.466.267-7-1l-4-1c3.015-1.005 5.042-1.103 8.188-1.062z" fill="#2659e1"/><path d="M1104 825h1c-.35 8.193-.35 8.193-3.062 11.563L1100 838l1.438-4.812.809-2.707c.558-1.835 1.147-3.661 1.754-5.48z" fill="#2d93fb"/><path d="M894 724l2 1c1.158 3.473 1.069 6.361 1 10h-2l-1-11z" fill="#164ef7"/><path d="M579 524c1 2 1 2 .875 4.438C579 531 579 531 576.438 532.813L574 534l1-5h2l.438-1.937C578 525 578 525 579 524z" fill="#023bd7"/><path d="M429.199 131.926L431 133l-3.812 2-2.145 1.125C423 137 423 137 420 137c1-3 1-3 3.813-4.812C427 131 427 131 429.199 131.926z" fill="#2251f1"/><path d="M449 95l1 2c-4.053.982-7.839 1.082-12 1 7.286-4.857 7.286-4.857 11-3z" fill="#3263f6"/><path d="M817 1121c-1.77 2.142-2.876 2.961-5.562 3.813L809 1125l-2-2 3.875-1.562 2.18-.879C815 1120 815 1120 817 1121z" fill="#3269ef"/><path d="M570 644l2 3c-.75 2.625-.75 2.625-2 5l-2 1-2-2 4-7z" fill="#163ec6"/><path d="M631 544l2 3-5 6-2-1 5-8z" fill="#1355f2"/><path d="M374 471l2 1v2l-8 3-2-2 3.875-2.062 2.18-1.16L374 471z" fill="#2745d1"/><path d="M127 464h1l-.375 4.813-.211 2.707C127 474 127 474 125 477c-1.188-3.429-.802-5.378.438-8.75l.871-2.422L127 464z" fill="#1d37b1"/><path d="M738 105c-3.767 1.381-6.448.596-10.25-.437l-3.266-.871L722 103v-1c6.11-1.929 10.482.459 16 3z" fill="#4087f9"/><path d="M526 101l8 1c-2.495 2.495-3.673 2.359-7.125 2.625l-2.758.227L522 105l3-1 1-3z" fill="#376ff8"/><path d="M558 69l-1 2c-3.38.626-6.562 1-10 1l-1-2c4.053-.982 7.839-1.082 12-1z" fill="#155af9"/><path d="M671 1176l5.063.438 2.785.309L681 1177v1c-5.081.847-9.848 1.09-15 1l1.938-.937c1.999-.897 1.999-.897 3.063-2.062z" fill="#3e66da"/><path d="M539 1151l3.813-.062 2.145-.035C547 1151 547 1151 550 1152l-1 3-10-3v-1z" fill="#0729b6"/><path d="M836 1112c-1 3-1 3-4.062 4.688L829 1118v-2l-2-1c6.75-3 6.75-3 9-3z" fill="#2462f1"/><path d="M770 520l6 3v3c-2.962-.613-4.381-1.254-7-3l1-3z" fill="#1c3fbb"/><path d="M756 510c2.438 1.25 2.438 1.25 5 3l1 4-8-5 2-2z" fill="#1d3aba"/><path d="M114 428c1.263 3.79.497 5.375-1 9l-2 1c.75-6.625.75-6.625 3-10z" fill="#0c23ac"/><path d="M850 144c3.199-.089 5.927.089 9 1l1 4c-3.912-1.156-6.875-2.355-10-5z" fill="#338dfc"/><path d="M1089 860h1c.364 4.242-.461 6.582-3 10h-2c1.109-3.487 2.263-6.775 4-10z" fill="#2c90fa"/><path d="M1143 655h1c.925 4.716 1.229 7.673-1 12h-1c-.082-4.161.018-7.947 1-12z" fill="#0e8cfc"/><path d="M266 593l2 1c-.312 3.375-.312 3.375-1 7l-3 2c.458-3.469.891-6.674 2-10z" fill="#314099"/><path d="M611 577c1 3 1 3-.437 6.188L609 586l-3-1 5-8z" fill="#1148e2"/><path d="M637 534c.652 1.797.652 1.797 1 4-1.365 2.334-3.142 4.006-5 6l-1-2c.996-1.945.996-1.945 2.438-4.125l1.434-2.195L637 534z" fill="#1055f8"/><path d="M334 499c-1.444 3.807-3.35 5.266-7 7l-2-1 3.375-3 1.898-1.687C332 499 332 499 334 499z" fill="#1b31b8"/><path d="M780 437h3v10c-2.296-3.445-2.54-5.938-3-10z" fill="#178ffb"/><path d="M700 422l2 1c-3.905 3.55-6.977 4.818-12 6 2.797-3.291 6.195-5.063 10-7z" fill="#1d7afb"/><path d="M181 345c1 3 1 3 .004 5.043l-1.441 2.145-1.434 2.168L177 356c-1-3-1-3-.004-5.043l1.441-2.145 1.434-2.168L181 345z" fill="#1032c7"/><path d="M310 201c-1.238 3.714-2.852 4.774-6 7h-2l1-3h2l1-3c2-1 2-1 4-1z" fill="#153fe6"/><path d="M540 59l-4.687 1.563-2.637.879c-2.922.61-4.82.336-7.676-.441 4.735-2.841 9.725-3.538 15-2z" fill="#babbba"/><path d="M709 1151l-1 3-11-1v-1l4.875-.5 2.742-.281L709 1151z" fill="#1446db"/><path d="M436 1122c5.538.615 5.538.615 7.875 2.563L445 1126l-8-1-1-3z" fill="#0b28a5"/><path d="M317 1056c4.11 1.45 7.433 3.511 11 6l-3 1c-2.043-1.18-2.043-1.18-4.187-2.875l-2.168-1.68L317 1057v-1z" fill="#1e33a7"/><path d="M280 1053l3 2v2h3l2 4c-3.817-1.555-6.192-4.036-9-7l1-1z" fill="#172e9e"/><path d="M1081 876l2 2c-3.75 6.875-3.75 6.875-6 8 1.109-3.487 2.263-6.775 4-10z" fill="#1d88fc"/><path d="M1133 819h2l-3 12c-2-3-2-3-2-5h2l1-7z" fill="#2599fd"/><path d="M964 812h2c-.312 2.375-.312 2.375-1 5l-3 2c-.125-2.375-.125-2.375 0-5l2-2z" fill="#125bde"/><path d="M666 647c.75 1.625.75 1.625 1 4-3.178 5.589-3.178 5.589-6 7 1.45-3.791 3.152-7.387 5-11z" fill="#d0d8ed"/><path d="M690 599c1 4 1 4-.437 6.75L688 608l-3-1 5-8z" fill="#0546db"/><path d="M860 540c5.75-.125 5.75-.125 8 1v2l-9-1 1-2z" fill="#0a3fdf"/><path d="M738 521l2 1-5 9c-1-4-1-4 .938-7.25L738 521z" fill="#2034a3"/><path d="M98 478l1 2 2 1-2 3-2 5c-1.417-4.251-.193-6.719 1-11z" fill="#031ca5"/><path d="M113 391l2 1c-.25 2.875-.25 2.875-1 6l-4 2 3-9z" fill="#d0cfcf"/><path d="M1077 307c3.336 2.991 5.151 5.932 7 10h-2c-3.017-3.2-4.499-5.615-5-10z" fill="#1ca2fc"/><path d="M227 279h2c-1.443 3.366-3.333 5.51-6 8 0-3.932 1.394-5.164 4-8z" fill="#0a2ecf"/><path d="M369 128l2 1c-4.75 4.875-4.75 4.875-7 6v-4c2.375-1.812 2.375-1.812 5-3z" fill="#1a44e8"/><path d="M562 97c-3.062 1.784-5.221 2.229-8.75 2.125l-2.422-.055L549 99c4.526-3.017 7.765-3.346 13-2z" fill="#0749f6"/><path d="M493 82h-2v2c-2.915.81-4.461 1.218-7.312.063L482 83c7.429-2.429 7.429-2.429 11-1z" fill="#3368f8"/><path d="M718 1171c-3.204 2.136-4.019 2.231-7.687 2.125l-2.449-.055L706 1173v-1c4.412-1.471 7.483-2.369 12-1z" fill="#0537d5"/><path d="M775 1158v2l-10 1c3.813-2.542 5.475-3.119 10-3z" fill="#1346e6"/><path d="M825 1116l2 1-1 2c-2.066.414-2.066.414-4.562.625l-2.504.227L817 1120c2.689-1.792 4.953-2.984 8-4z" fill="#386ff2"/><path d="M925 1089c-2.528 2.799-4.204 4.458-8 5 0-2 0-2 1.188-3.625 2.368-1.796 3.911-1.61 6.813-1.375z" fill="#1161fb"/><path d="M1089 915c-1.186 3.375-2.276 5.647-5 8-.366-4.517-.366-4.517 1.375-6.812C1087 915 1087 915 1089 915z" fill="#0e81fc"/><path d="M118 829h2c1.607 3.215 1.057 6.436 1 10-2.296-3.445-2.54-5.938-3-10z" fill="#2237a3"/><path d="M1142 791h3l-2 7h-3l2-7z" fill="#188efc"/><path d="M683 696l6 2c-3.228 2.152-4.284 2.201-8 2l2-4z" fill="#0a47dd"/><path d="M566 652l3 1v2l-5 3-1-2 3-4z" fill="#0b32bc"/><path d="M257 627h1l1 8h-2v5h-1c-.077-4.516-.102-8.591 1-13z" fill="#414f9b"/><path d="M1164 534c2.136 3.204 2.231 4.019 2.125 7.688l-.055 2.449L1166 546h-1v-7h-2l1-5z" fill="#34a7fd"/><path d="M109 534l2 1v9h-1v-5h-2l1-5z" fill="#162f9f"/><path d="M762 512l3.938 2.875 2.215 1.617C770 518 770 518 771 520c-3.918-1.306-6.326-2.831-9-6v-2z" fill="#046eed"/><path d="M110 439h1l-1 9-2-1c.523-2.763 1.109-5.326 2-8zm-3 9l2 1-2 1v-2z" fill="#051dab"/><path d="M201 313h2c-1.125 2.972-2.223 5.334-4 8h-2c1.125-2.972 2.223-5.334 4-8z" fill="#0f33cf"/><path d="M190 284h1c.25 2.313.25 2.313 0 5-2 1.813-2 1.813-4 3l-2-1 2.438-3.5 1.371-1.969L190 284z" fill="#1738d3"/><path d="M541 100c-2 2-2 2-3.945 2.195L531 102c3.802-2.534 5.684-3.339 10-2z" fill="#0847f5"/><path d="M853 97c3.688.498 5.605 1.101 8 4l-2 1-6-3v-2z" fill="#333"/><path d="M586 95c-3.9 2.6-7.474 2.151-12 2 3.842-4.002 6.941-2.927 12-2z" fill="#4c88fa"/><path d="M497 1142l8 1c-2 2-2 2-4.625 2.125L498 1145l-1-3z" fill="#0628ad"/><path d="M947 1071l2 2-7 5 1-4h2l1-2 1-1z" fill="#176af9"/><path d="M1004 990c-1.152 2.468-2.048 4.048-4 6l-3-1c4.75-5 4.75-5 7-5z" fill="#217afa"/><path d="M411 852v1l-10-1v-1c4.054-1.158 6.218-.837 10 1z" fill="#2f387a"/><path d="M958 819l4 1-5 6-1-4h3l-1-3z" fill="#2862cc"/><path d="M1157 495c1.996 3.991 2.195 5.7 2 10l-3-1 1-9z" fill="#44b0fc"/><path d="M610 474c.813 1.625.813 1.625 1 4-1.468 2.246-3.159 4.024-5 6 0-4.246 1.818-6.385 4-10z" fill="#0244dc"/><path d="M131 389l1 2-3 6h-1c-.187-2.875-.187-2.875 0-6l3-2z" fill="#0c2bb7"/><path d="M1071 298c5.571 5.143 5.571 5.143 6 9-3-1-3-1-4.687-3.937C1071 300 1071 300 1071 298z" fill="#1b9dfc"/><path d="M193 280l3 1c-1.522 2.629-2.844 4.844-5 7-.201-3.716-.152-4.772 2-8z" fill="#0c2bc4"/><path d="M879 126c3.775 1.091 6.47 1.908 9 5l-2 1v-2l-7-2v-2z" fill="#0e81fb"/><path d="M861 117c5.75 1.75 5.75 1.75 8 4l-2 1-3-2h-3v-3z" fill="#0a7cfa"/><path d="M420 104l2 1-3 1v2c-1.875.625-1.875.625-4 1l-2-2 7-3z" fill="#3a63f4"/><path d="M503 79l-1 3-9-1c3.991-1.996 5.7-2.195 10-2z" fill="#3e73f9"/>
  </g>
  <text x="82.97" y="32" fill="#1f2937" font-family="Inter, Arial, Helvetica, sans-serif" font-size="17" font-weight="600" letter-spacing="0.14em">CODE</text>
  <text x="82.97" y="58" fill="#0f4fd8" font-family="Inter, Arial, Helvetica, sans-serif" font-size="24" font-weight="800" letter-spacing="0.1em">BONDHU</text>
</svg>